<?xml version="1.0" encoding="UTF-8" standalone="no"?>
<svg
   width="831pt"
   height="831pt"
   viewBox="0 0 831 831"
   version="1.1"
   id="svg8805"
   sodipodi:docname="main.svg"
   xml:space="preserve"
   inkscape:version="1.2 (dc2aedaf03, 2022-05-15)"
   inkscape:export-filename="main.png"
   inkscape:export-xdpi="354.88809"
   inkscape:export-ydpi="354.88809"
   xmlns:inkscape="http://www.inkscape.org/namespaces/inkscape"
   xmlns:sodipodi="http://sodipodi.sourceforge.net/DTD/sodipodi-0.dtd"
   xmlns="http://www.w3.org/2000/svg"
   xmlns:svg="http://www.w3.org/2000/svg"><defs
     id="defs8809" /><sodipodi:namedview
     id="namedview8807"
     pagecolor="#000000"
     bordercolor="#666666"
     borderopacity="1.0"
     inkscape:showpageshadow="2"
     inkscape:pageopacity="1"
     inkscape:pagecheckerboard="0"
     inkscape:deskcolor="#d1d1d1"
     inkscape:document-units="pt"
     showgrid="false"
     inkscape:zoom="1.4142136"
     inkscape:cx="317.84449"
     inkscape:cy="472.34732"
     inkscape:window-width="3813"
     inkscape:window-height="2072"
     inkscape:window-x="2"
     inkscape:window-y="29"
     inkscape:window-maximized="1"
     inkscape:current-layer="g18872" /><g
     id="g18872"
     style="display:inline;fill:#000000;fill-opacity:1"
     transform="matrix(1.000552,0,0,0.99886959,-100.34467,-79.87916)"><g
       id="#ffffffff"
       style="display:inline;opacity:1;fill:#ffffff;fill-opacity:1"
       transform="translate(-0.5300297,-0.53092961)"><path
         id="path18926"
         style="display:inline;opacity:1;fill:#ffffff;fill-opacity:1;stroke:none;stroke-width:1.028;stroke-dasharray:none"
         d="M 516.09082,80.500488 C 405.95427,80.500222 300.32816,124.32499 222.44971,202.33447 144.57126,280.34396 100.81949,386.14843 100.81934,496.4707 c 1.4e-4,110.32227 43.75192,216.12675 121.63037,294.13623 77.87844,78.00949 183.50456,121.83426 293.64111,121.83399 110.1363,-1.2e-4 215.76153,-43.82601 293.63965,-121.83545 C 887.6086,712.59603 931.3607,606.79272 931.36084,496.4707 931.36069,386.14868 887.6086,280.34538 809.73047,202.33594 731.85234,124.3265 626.22711,80.50061 516.09082,80.500488 Z m -0.35156,23.140142 c 103.64898,0 203.05334,41.79162 276.34424,115.08251 73.29089,73.2909 114.46435,172.69526 114.46435,276.34424 0,103.64899 -41.17346,203.05334 -114.46435,276.34424 -34.97712,34.97712 -75.90204,62.63875 -120.39698,82.00195 -0.19505,0.0849 -0.39031,0.17038 -0.59912,0.22852 -1.07247,0.20622 -2.00469,-0.005 -2.4873,-1.37256 -0.32,-7.78998 -3.60024,-15.0901 -3.24024,-22.8501 5.78,-5.69998 12.06071,-10.83015 17.97071,-16.39013 1.09066,-1.02202 1.07398,-2.71017 0.0996,-3.17871 -8.14,-3.11 -17.57,-1.92063 -25.72998,-4.64063 -4.22,-7.15998 -7.96672,-14.64798 -11.74952,-22.04004 -0.83142,-1.6247 -3.38927,-2.10852 -4.4353,-0.48079 -4.62288,7.19371 -6.59573,14.62124 -11.35571,21.67122 -8.29601,0.96553 -18.60928,2.65751 -23.37598,3.56104 -4.48821,0.85172 -3.74564,3.08953 0.10694,7.19824 4.74137,5.05659 9.56064,9.56234 14.75976,14.83886 0.29046,3.81201 -0.34903,7.09875 -0.8562,10.45293 -0.25367,1.67764 -0.5874,2.769 -0.77322,3.79232 -0.34478,1.8987 -0.66964,3.39404 -1.49974,7.22087 -1.28127,5.90678 1.11374,7.69241 6.82107,4.01622 3.78059,-2.43514 4.48747,-2.49968 8.25071,-4.53129 3.32289,-1.79389 4.52238,-2.34714 8.08392,-3.96922 3.31634,-1.51041 2.44723,-1.16502 6.09965,0.76363 6.26566,3.30856 14.51344,7.57101 14.9158,7.81753 0.56426,0.34572 0.28448,0.2412 0.88037,0.67383 0.5959,0.43262 0.0517,0.77884 -0.25341,0.90381 -46.3091,18.96387 -96.46689,28.77686 -147.58008,28.77686 -103.64898,0 -203.05334,-41.17346 -276.34424,-114.46436 C 166.10412,698.12071 124.9292,598.71636 124.9292,495.06738 c 0,-215.83783 174.97222,-391.42675 390.81006,-391.42675 z"
         sodipodi:nodetypes="cscssscscsssssccccccssccscssssssssscssss" /><path
         fill="#ffffff"
         opacity="1"
         d="m 461.48,121.63 c 30.34725,-3.68942 15.52126,-3.34235 40.2426,-4.06 13.88249,-0.40301 31.58218,-0.1108 52.64427,2.20696 17.85136,1.96443 36.4721,5.00407 52.47313,8.96304 -7.62,8.18 -3.19,20.59 6.07,25.26 70.83,37.54 121.82,108.54 138.78,186.28 7.68,39.99 6.21,82.21 -3.61,121.52 -11.32,45.19 -35.47285,87.79911 -67.29285,121.82911 2.315,2.84426 3.50642,4.62025 6.12033,6.59463 40.57,-41.63 68.50252,-96.06374 76.22252,-153.38374 5.08,-41 2.88,-83.39 -9.32,-122.83 C 734.1,248.29 688.28,191.2 630.37,154.63 c -6.53,-4.62 -18.95,-8.06 -16.8,-18.18 2.23,-2.85 6.12,-3.13 9.45,-2.66 9.13,1.36 17.77,4.97 26.53,7.9 86.62,31.88 159.98,97.57 202.02,179.7 25.06,48.5 39.2,102.32 41.42,156.6 4.77,94.93 -28.46,190.81 -90.86,262.98 -1.53,3.18 -4.82,0.81 -6.95,-0.19 -16.17,-8.54 -30.89,-19.73 -43.98,-32.47 -8.19,4.19 -14.4,12.28 -21.75,18.09 0.14,10.91 4.07,21.51 5.02,32.24 0.24,2.45 -2.73,2.09 -4.31,2.04 -9.18,-4.1 -17.82,-10.1 -27.13,-13.42 -8.85,3.7 -17.47,8.97 -26.01,13.36 -2.23,0.29 -6.18,0.61 -5.48,-2.81 0.97,-10.01 3.84,-19.96 4.99,-29.93 -7.3,-7.55 -0.59649,0.0692 -21.62836,-22.77157 -2.39377,-2.59965 0.2113,-4.42776 5.32925,-5.24962 6.93964,-1.11438 17.46149,-2.34665 23.15601,-3.31247 3.72121,-0.63114 4.05708,-0.30725 4.7631,-2.52634 3.28,-7.61 7.33,-14.85 10.49,-22.51 1.17,-1.66 2.25,-3.45 4.36,-3.99 0.55,0.33 1.65,0.97 2.2,1.29 4.97,9.56 9.7,19.38 15.16,28.6 7.92,0.56 15.32,2.86 23.28,3.16 -23.07,-24.42 -41.73,-52.62 -58.69,-81.53 -19.66,-33.13 -33.45,-69.14 -47,-105.02 -10.96,-28.51 -21.97,-57.02 -29.59,-86.63 -3.08,-3.87 -7.90483,-5.63606 -12.07,-7.72 -3.07781,0.33536 -4.99573,1.12626 -7.57041,2.55878 -2.87824,1.60144 -3.83048,1.80415 -6.47035,3.2895 -2.13237,1.19981 -5.02845,1.59151 -3.94684,-2.56423 1.50998,-5.80159 3.01704,-7.99316 2.38704,-14.02316 -3.6,-4.14 -7.65732,-7.41685 -11.18,-12.35 -0.46317,-0.90878 0.2923,-1.67858 2.29122,-2.03033 5.18061,-0.91163 9.38934,-0.74056 14.41934,-2.27056 3.12,-4.31 5.1,-9.31 7.13,-14.21 -6.17,-20.63 -12.07,-41.44 -18.67,-61.98 -0.92,-7.22 -6.2,-13.49 -5.19,-20.95 3.32,-7.31 8.66,-15 17.22,-16.24 14.93,-0.81 26.61,-11.57 38.03,-20.18 5.52,-4.82 12.7,-10.59 11.62,-18.78 -0.6,-0.85 -1.26,-1.63 -1.99,-2.34 -6.88,-1.13 -13.69,-2.1 -20.35,-3.86 -9.02,-0.89 -18.15,0.42 -27.17,-0.51 -7.09,-2.18 -11.95,-8.05 -16.79,-13.3 -6.13,-8.87 -14.37,-16.47 -18.35,-26.68 -3.97,-13.73 4.12,-26.86 5.11,-40.23 1.32,-5.02 0.03,-10.58 -3.26,-14.55 -5.32,-4.52 -14.27,-4.24 -18.18,2.03 -6.65,11.46 -5.42,25.14 -8.41,37.64 -1.57,4.19 -2.99,11.7 -9.14,9.07 -1.65,-10.78 4.6,-20.8 6.68,-31.14 1.14,-7.3 -5.95,-16.74 -13.76,-12.34 -7.79,5.39 -8.96,15.66 -10.3,24.22 -1.95,8.96 -4.91,19.15 -13.3,24.3 -8.73,2.91 -18.51,5.92 -23.65,14.22 -15.35,23.12 -41.39,34.92 -64.49,48.6 -24.33,11.53 -50.74,22.18 -68,43.9 -5.99,7.54 -12.34,16.15 -12.43,26.11 2.9,11.3 16.49,8.08 24.31,12.96 10.77,12.11 30.63,12.24 43.5,3.37 6,-4.73 13.76,-7.77 21.36,-5.32 13.99,8.49 30.84,8.53 46.67,9.8 7.82,1.25 16.07,0.79 24.04,1.49 4.1,29.83 10.16,59.09 11.92,89.28 4.65,43.51 8.28,87.45 12.55,130.99 0.555,4.3075 0.84344,6.045 1.35406,10.25375 0.75032,-0.0356 2.63594,-0.14375 3.32594,-0.41375 3.07219,-5.59031 7.1931,-14.72868 8.46841,-16.59914 1.27531,-1.87046 1.94331,-1.28975 3.08549,0.0846 1.14218,1.37435 6.19643,12.73259 10.24643,18.21259 6.8355,0.49868 11.81801,1.33231 16.57304,2.11143 4.75503,0.77912 4.52084,1.37255 1.90577,4.07512 -2.61506,2.70261 -9.03914,8.0454 -13.52914,12.4354 1.15187,7.15344 3.21844,13.2325 2.81938,20.61938 0.0899,0.79824 -0.61072,0.82033 -0.98071,0.7714 C 529.71382,618.34317 524.6895,612.13264 518,611.3 c -3.87,0.29 -7.08,2.87 -10.47,4.52 4.54,54.28 9.59,108.73 14.39,162.91 1.75,-0.06 3.53,-0.09 5.28,-0.37 3.91,-7.05 7.25279,-14.42206 10.99479,-21.61307 1.27065,-2.44181 3.10816,-1.61394 3.6537,-0.53464 3.80035,7.51872 7.7126,14.31536 11.0426,21.90536 8.0511,2.2615 15.48589,2.91201 23.51235,4.79985 1.87293,0.44052 2.47714,1.66688 1.82293,3.12187 -0.47089,1.0473 -1.3354,1.46402 -2.17513,2.14288 -5.57963,4.51072 -11.17554,8.80964 -15.68124,14.58775 1.14,8.53 3.39056,15.61474 4.06056,24.20474 0.15204,2.15008 -1.65535,1.65282 -2.9422,1.35126 -7.81786,-1.83206 -14.39757,-8.8309 -22.43836,-9.836 -4.22,2.28 -8.66,4.25 -12.63,6.96 0.36,15.64 2.87,31.2 3.09,46.81 -42.64,0.91 -85.03,-4.29 -125.57,-17.13 C 306.18,825.26 222.26,753.17 177.52,661.22 156.36,618.33 143.53,571.5 140.01,524.01 c -1.98,-40.72 -0.62,-81.8 9.87,-120.99 10.46,-43.06 29.82,-83.75 54.64,-120.56 4.29,-5.67 7.31,-12.71 13.66,-16.42 3.14,-1.61 6.77,-0.01 9.09,2.4 2.74,5.11 -1.11,10.2 -2.75,14.99 -12.27,27.23 -17.7,56.83 -21.33,86.01 -3.31,41.5 1.21,83.45 15.66,122.63 26.29,71.31 82.03,132.31 152.62,161.64 39.35,16.79 82.23,23.68 124.97,21.69 0.17,-2.96 0.05,-5.94 -0.09,-8.9 -72.82,3.46 -146.85,-23.33 -199.9,-73.95 -32.81,-30.56 -58.83,-68.97 -72.03,-111.93 -21.77,-65.6 -18.18,-139.18 10.88,-202.12 2.8,-9.05 -2.76,-18.09 -11.22,-21.39 0.01,-1.9 0.95,-3.45 2.4,-4.62 21.58308,-25.54739 52.88962,-53.79054 87.06794,-75.6567 14.05124,-8.98952 27.97376,-16.87739 42.32875,-23.50086 13.15822,-6.07128 26.79245,-11.05203 38.83882,-15.44096 C 425.19242,126.78764 450.92133,122.91365 461.48,121.63 Z"
         id="path8788"
         style="fill:#ffffff;fill-opacity:1"
         sodipodi:nodetypes="sssccccccccccccccccccccccccsssccccccccccsssccscccccccccccccccccccccccccccccccccczzczzccsccccsscsssccscccccccccccccccccccccssss" /><path
         fill="#ffffff"
         opacity="1"
         d="m 570.42,264.51 c 5.7,-4.25 11.95,-7.8 17.76,-11.95 6.59,-0.42 13.2,0.2 19.81,0.05 2.11,0.46 5.87,0.8 4.62,3.95 -1.86,2.28 -4.61,3.44 -6.94,5.11 -5.07,2.86 -9.3,8.07 -15.63,7.7 -6.52,0.53 -12.79,-1 -19.28,-0.98 -0.88,-1.1 -0.55,-2.62 -0.34,-3.88 z"
         id="path8792"
         style="fill:#ffffff;fill-opacity:1" /><path
         fill="#ffffff"
         opacity="1"
         d="m 363.73,308.14 c 2.51,-0.58 7.68,-2.05 8.74,1.05 -5.09,6.11 -12.44,10.9 -20.45,12.06 -2.3,0.44 -5.93,-0.4 -4.71,-3.48 4.67,-4.49 9.58,-9.31 16.42,-9.63 z"
         id="path8794"
         style="fill:#ffffff;fill-opacity:1" /><path
         fill="#ffffff"
         opacity="1"
         d="m 515.24,356.37 c 3.71,-4.87 4.23537,-10.7206 7.15975,-14.48438 0.88294,-2.01914 2.40859,-2.00429 3.67403,-0.0431 5.92412,9.18141 4.44977,11.74914 9.75622,15.51744 5.3,-0.37 10.01374,0.98374 15.21374,1.61033 2.03382,0.49056 1.45317,2.82682 0.11317,3.98682 -3.95,3.09 -8.70691,6.97285 -11.66691,10.94285 0.56652,5.39055 2.33518,13.26714 3.05844,15.89777 0.49338,1.79451 0.48952,3.41788 -2.48882,2.39064 -2.97834,-1.02724 -8.50962,-5.21841 -14.21962,-6.88841 -5.5458,0.4009 -9.63996,4.9954 -14.89989,6.61169 -1.00954,0.31022 -2.11612,1.00678 -3.37779,-0.67804 -0.53,-6.41 2.45768,-11.11365 1.87768,-17.38365 -2.85578,-4.37264 -9.7388,-7.72169 -12.00635,-12.22997 -0.40831,-0.81178 -0.75555,-1.49642 0.1833,-2.1993 5.79,-1.76 11.63305,-2.08073 17.62305,-3.05073 z"
         id="path8796"
         style="fill:#ffffff;fill-opacity:1"
         sodipodi:nodetypes="ccsccccszcsccsccc" /><path
         fill="#ffffff"
         opacity="1"
         d="m 552.32,455.39 c 0.93934,-1.96937 1.54154,-3.2903 2.74613,-5.07628 1.91728,-2.84265 2.95142,-3.27211 5.97099,1.22275 2.72075,4.05006 4.68689,7.69731 6.4143,11.11646 2.06501,4.08741 3.77468,8.30287 7.02981,12.85008 5.2148,0.74699 9.84942,1.87504 14.56877,2.52699 4.94656,0.68334 10.52,-0.02 14.61,3.41 -0.07,1.09 0.19,2.5 -0.94,3.17 -6.43,6.38 -13.52,12 -20.05,18.28 0.06,9.94 3.89356,19.35541 4.78,29.21 0.0614,0.68283 -0.45135,2.06725 -1.1,2.25536 -1.6622,0.48204 -3.42918,0.34732 -4.94918,-0.64268 -6.91,-4.04 -14.58082,-6.95268 -21.42082,-11.12268 -2.37,-0.88 -4.61,0.34 -6.48,1.69 -7.08,3.56 -13.91,7.51 -21.03,10.97 -1.75,0.86 -2.8,-0.87 -3.78,-1.97 0.48,-9.85 4.44,-19.55 3.86,-29.6 -6.4,-7.07 -13.51,-13.5 -19.8,-20.69 -1.04,-2.1 1.00085,-3.90012 3.18,-4.39 8.40866,-1.8903 16.17853,-1.88846 24.12957,-3.37949 1.18358,-0.22646 2.27711,-0.62314 3.16463,-1.41243 0.42735,-0.38005 0.83266,-0.83783 1.1258,-1.43808 2.91138,-5.96156 5.27501,-11.32981 7.97,-16.98 z"
         id="path8798"
         style="fill:#ffffff;fill-opacity:1"
         sodipodi:nodetypes="sssscscccsscccccccsccss" /><path
         fill="#ffffff"
         opacity="1"
         d="m 618.62,568.61 c 1.71,-2.93 4.96,0.22 5.44,2.43 3.19,6.95 7.03,13.6 10.71,20.31 8.48502,1.81952 19.01176,2.37824 23.72112,4.09544 2.96076,1.07959 2.38493,2.83856 1.78053,3.60705 -2.01652,2.56401 -4.38527,4.06709 -6.27165,5.99751 -3.58,3.82 -7.88,6.84 -11.55,10.54 0.23,9.31 3.95742,17.8208 3.90742,27.1708 -0.13732,1.33953 -0.46037,2.29559 -3.48451,0.92493 -6.47,-4.06 -14.20291,-7.19573 -20.79291,-11.02573 -4.43,0.08 -8.01,3.77 -12.15,5.34 -4.07598,1.31483 -7.28212,4.45916 -11.41337,5.86745 -1.00419,0.34231 -2.04348,0.43953 -2.94034,-0.84463 C 594.91775,633.52338 599.2,625.38 598.53,615.95 c -5.54,-4.65 -9.96,-10.39 -15.27,-15.27 -1.15,-1.4 -3.1,-2.77 -2.65,-4.82 8.33,-5.02 19.24,-1.95 27.85,-6.3 3.26,-7.05 6.43,-14.16 10.16,-20.95 z"
         id="path8800"
         style="fill:#ffffff;fill-opacity:1"
         sodipodi:nodetypes="cccssccccccscccccc" /><path
         fill="#ffffff"
         opacity="1"
         d="m 569.53,663.4 c 0.80051,-1.17411 1.15416,-0.80871 1.85,0.03 5.396,6.50395 7.57893,14.35086 11.63328,21.44986 9.06796,0.91329 12.06635,2.0307 17.91673,2.89014 2.42857,0.35677 8.29601,1.0083 5.48,4.2 -5.00695,5.67494 -11.15,9.94 -16.59,15.05 0.59,8.04 3.45656,15.53125 3.65656,23.77125 -0.64579,1.81941 -2.19291,2.04672 -3.43389,1.48749 -1.18892,-0.53576 -2.57012,-1.66439 -4.46267,-2.71874 -3.86798,-2.15487 -11.84625,-6.09313 -15.21,-8.03187 -5.9,3.3 -13.44,7.49187 -19.34,10.76187 -1.55,0.61 -3.49235,0.21555 -3.52,-2.16 -0.0906,-7.78673 3.48,-15 3.04,-22.61 -5.44,-5.39 -10.93851,-10.73622 -16.11,-16.36 -0.94821,-1.03113 -0.56847,-2.31525 0.23125,-2.50719 9.26283,-2.22315 16.36496,-2.55237 24.43562,-3.85437 3.62562,-7.22074 4.76726,-13.10298 10.42313,-21.39844 z"
         id="path8802"
         style="fill:#ffffff;fill-opacity:1"
         sodipodi:nodetypes="sscssccssccscsscss" /><path
         fill="#ffffff"
         opacity="1.00"
         d="m 479,253.84 c 8.58,-0.09 16.71,-2.84 25,-4.45 6.19,-1.37 7.99,5.63 11.95,8.64 4.03,4.55 9.15,8.3 12.72,13.12 -5.79369,3.07881 -11.58967,6.55594 -18.11133,8.23943 -2.4385,0.62947 -5.01637,0.97028 -7.67867,1.00057 -1.17693,-0.28321 -2.51138,-0.60995 -3.02875,-1.83352 -0.69875,-1.65249 -1.28517,-3.33831 -2.84125,-4.35648 -2.14,0.79 -3.74,3.14 -6.26,2.38 0.60823,-1.3002 1.90781,-3.68422 1.90781,-3.68422 0,0 -2.82913,1.181 -3.27781,1.39422 -1.5516,0.73734 -4.54196,1.33 -6.30196,1.29 2.11106,-2.78407 5.79196,-2.99 6.94196,-5.35 -2.95,-0.13 -7.16228,1.46033 -10.07228,1.52033 2.56618,-3.24155 7.09228,-2.58033 5.90228,-6.44033 -2.76,0.4 -6.02472,0.45 -8.79472,0.39 2.43,-0.83 5.02472,-2.13 6.71472,-4.1 -5.24,0.04 -10.84252,0.40626 -16.07252,-0.004 2.85,-3.17 9.04252,-1.37626 12.07252,-4.81626 -1.71,-1.06 -3.95252,-1.32593 -5.91252,-1.32593 0.04,-1.9 3.5,-1.43537 5.14252,-1.61407 z"
         id="path8790"
         style="display:inline;opacity:1;fill:#ffffff;fill-opacity:1"
         sodipodi:nodetypes="ccccscscccsccccccccccc" /></g></g></svg>
